<?xml version="1.0" encoding="utf-8"?>
<!-- Generator: Adobe Illustrator 21.0.0, SVG Export Plug-In . SVG Version: 6.00 Build 0)  -->
<svg version="1.1" id="Layer_1" xmlns="http://www.w3.org/2000/svg" xmlns:xlink="http://www.w3.org/1999/xlink" x="0px" y="0px"
	 viewBox="0 0 314.1 47.6" style="enable-background:new 0 0 314.1 47.6;" xml:space="preserve">
<style type="text/css">
	.st0{fill:#275937;}
	.st1{fill:#A3A86B;}
</style>
<g>
	<path class="st0" d="M44.9,40.6L42.6,32h1.2l1.3,5.6c0.1,0.6,0.3,1.2,0.4,1.8c0.2-0.9,0.3-1.4,0.4-1.6l1.6-5.8h1.4l1.2,4.3
		c0.3,1.1,0.5,2.1,0.7,3c0.1-0.5,0.3-1.2,0.4-1.9l1.3-5.5h1.1l-2.4,8.6h-1.1L48.3,34c-0.2-0.5-0.2-0.9-0.3-1c-0.1,0.4-0.2,0.7-0.3,1
		L46,40.6H44.9z"/>
	<path class="st0" d="M55.4,40.6V32h1.1v3.1c0.5-0.6,1.1-0.9,1.9-0.9c0.5,0,0.9,0.1,1.2,0.3s0.6,0.4,0.7,0.8s0.2,0.8,0.2,1.4v3.9
		h-1.1v-3.9c0-0.5-0.1-0.9-0.3-1.2s-0.6-0.4-1-0.4c-0.3,0-0.6,0.1-0.9,0.2s-0.5,0.4-0.6,0.7s-0.2,0.7-0.2,1.1v3.4h-1V40.6z"/>
	<path class="st0" d="M67.2,38.6l1.1,0.1c-0.2,0.6-0.5,1.1-1,1.5s-1.1,0.5-1.8,0.5c-0.9,0-1.6-0.3-2.2-0.8s-0.8-1.3-0.8-2.4
		c0-1,0.3-1.9,0.8-2.4s1.2-0.9,2.1-0.9c0.8,0,1.5,0.3,2,0.8s0.8,1.4,0.8,2.4c0,0.1,0,0.2,0,0.3h-4.6c0,0.7,0.2,1.2,0.6,1.6
		c0.4,0.4,0.8,0.5,1.3,0.5c0.4,0,0.7-0.1,1-0.3C66.9,39.4,67.1,39,67.2,38.6z M63.8,36.9h3.5c0-0.5-0.2-0.9-0.4-1.2
		c-0.3-0.4-0.8-0.6-1.3-0.6s-0.9,0.2-1.2,0.5S63.8,36.3,63.8,36.9z"/>
	<path class="st0" d="M70.5,40.6v-6.2h0.9v0.9c0.2-0.4,0.5-0.7,0.7-0.9s0.4-0.2,0.7-0.2c0.4,0,0.7,0.1,1.1,0.3l-0.4,1
		c-0.3-0.2-0.5-0.2-0.8-0.2c-0.2,0-0.4,0.1-0.6,0.2s-0.3,0.3-0.4,0.6c-0.1,0.4-0.2,0.8-0.2,1.2v3.3C71.5,40.6,70.5,40.6,70.5,40.6z"
		/>
	<path class="st0" d="M79.6,38.6l1.1,0.1c-0.2,0.6-0.5,1.1-1,1.5s-1.1,0.5-1.8,0.5c-0.9,0-1.6-0.3-2.2-0.8S75,38.5,75,37.5
		s0.3-1.9,0.8-2.4s1.2-0.9,2.1-0.9c0.8,0,1.5,0.3,2,0.8s0.8,1.4,0.8,2.4c0,0.1,0,0.2,0,0.3h-4.6c0,0.7,0.2,1.2,0.6,1.6
		s0.8,0.5,1.3,0.5c0.4,0,0.7-0.1,1-0.3S79.5,39,79.6,38.6z M76.2,36.9h3.5c0-0.5-0.2-0.9-0.4-1.2c-0.3-0.4-0.8-0.6-1.3-0.6
		s-0.9,0.2-1.2,0.5S76.2,36.3,76.2,36.9z"/>
	<path class="st0" d="M91.2,38.3l1,0.1c-0.1,0.7-0.4,1.3-0.9,1.7s-1,0.6-1.7,0.6c-0.9,0-1.5-0.3-2.1-0.8s-0.8-1.4-0.8-2.4
		c0-0.7,0.1-1.3,0.3-1.8s0.6-0.9,1-1.1s1-0.4,1.5-0.4c0.7,0,1.2,0.2,1.7,0.5s0.7,0.8,0.8,1.5l-1,0.2c-0.1-0.4-0.3-0.7-0.5-0.9
		s-0.5-0.3-0.9-0.3c-0.5,0-1,0.2-1.3,0.6s-0.5,1-0.5,1.8s0.2,1.4,0.5,1.8S89,40,89.6,40c0.4,0,0.8-0.1,1-0.4S91.1,38.8,91.2,38.3z"
		/>
	<path class="st0" d="M94,40.6V32h1v3.1c0.5-0.6,1.1-0.9,1.9-0.9c0.5,0,0.9,0.1,1.2,0.3s0.6,0.4,0.7,0.8S99,36,99,36.7v3.9h-1v-3.9
		c0-0.5-0.1-0.9-0.3-1.2s-0.6-0.4-1-0.4c-0.3,0-0.6,0.1-0.9,0.2s-0.5,0.4-0.6,0.7S95,36.7,95,37.2v3.4C95,40.6,94,40.6,94,40.6z"/>
	<path class="st0" d="M105.6,39.8c-0.4,0.3-0.8,0.6-1.1,0.7s-0.7,0.2-1.2,0.2c-0.7,0-1.2-0.2-1.6-0.5s-0.6-0.8-0.6-1.3
		c0-0.3,0.1-0.6,0.2-0.8s0.3-0.5,0.5-0.6s0.5-0.3,0.8-0.3c0.2-0.1,0.5-0.1,0.9-0.2c0.9-0.1,1.5-0.2,1.9-0.4c0-0.1,0-0.2,0-0.3
		c0-0.4-0.1-0.7-0.3-0.9c-0.3-0.2-0.7-0.4-1.2-0.4s-0.9,0.1-1.1,0.3s-0.4,0.5-0.5,0.9l-1-0.1c0.1-0.4,0.2-0.8,0.5-1.1
		s0.5-0.5,0.9-0.6s0.9-0.2,1.4-0.2s1,0.1,1.3,0.2c0.3,0.1,0.6,0.3,0.7,0.5s0.3,0.4,0.3,0.7c0,0.2,0.1,0.5,0.1,1V38
		c0,1,0,1.6,0.1,1.9s0.1,0.5,0.3,0.7h-1.1C105.7,40.4,105.6,40.1,105.6,39.8z M105.5,37.5c-0.4,0.2-1,0.3-1.7,0.4
		c-0.4,0.1-0.7,0.1-0.9,0.2s-0.3,0.2-0.4,0.3s-0.1,0.3-0.1,0.5c0,0.3,0.1,0.5,0.3,0.7s0.5,0.3,0.9,0.3s0.8-0.1,1.1-0.3
		s0.5-0.4,0.7-0.7c0.1-0.2,0.2-0.6,0.2-1.1L105.5,37.5L105.5,37.5z"/>
	<path class="st0" d="M109,40.6v-6.2h0.9v0.9c0.5-0.7,1.1-1,2-1c0.4,0,0.7,0.1,1,0.2s0.5,0.3,0.7,0.5s0.3,0.5,0.3,0.8
		c0,0.2,0.1,0.5,0.1,1v3.8h-1v-3.8c0-0.4,0-0.8-0.1-1s-0.2-0.4-0.4-0.5s-0.5-0.2-0.7-0.2c-0.4,0-0.8,0.1-1.2,0.4s-0.5,0.8-0.5,1.6
		v3.4L109,40.6L109,40.6z"/>
	<path class="st0" d="M116.4,41.1l1,0.2c0,0.3,0.2,0.5,0.4,0.7c0.3,0.2,0.6,0.3,1.1,0.3s0.9-0.1,1.1-0.3s0.4-0.5,0.5-0.8
		c0.1-0.2,0.1-0.7,0.1-1.4c-0.5,0.5-1,0.8-1.7,0.8c-0.9,0-1.5-0.3-2-0.9s-0.7-1.4-0.7-2.2c0-0.6,0.1-1.1,0.3-1.6s0.5-0.9,0.9-1.2
		s0.9-0.4,1.4-0.4c0.7,0,1.3,0.3,1.8,0.9v-0.8h1v5.4c0,1-0.1,1.7-0.3,2.1s-0.5,0.7-0.9,1s-1,0.4-1.6,0.4c-0.7,0-1.3-0.2-1.8-0.5
		S116.4,41.8,116.4,41.1z M117.3,37.4c0,0.8,0.2,1.4,0.5,1.8s0.7,0.6,1.2,0.6s0.9-0.2,1.2-0.6s0.5-1,0.5-1.8s-0.2-1.3-0.5-1.7
		s-0.7-0.6-1.2-0.6s-0.9,0.2-1.2,0.6S117.3,36.6,117.3,37.4z"/>
	<path class="st0" d="M128.4,38.6l1.1,0.1c-0.2,0.6-0.5,1.1-1,1.5s-1.1,0.5-1.8,0.5c-0.9,0-1.6-0.3-2.2-0.8s-0.8-1.3-0.8-2.4
		c0-1,0.3-1.9,0.8-2.4s1.2-0.9,2.1-0.9c0.8,0,1.5,0.3,2,0.8s0.8,1.4,0.8,2.4c0,0.1,0,0.2,0,0.3h-4.6c0,0.7,0.2,1.2,0.6,1.6
		s0.8,0.5,1.3,0.5c0.4,0,0.7-0.1,1-0.3S128.2,39,128.4,38.6z M124.9,36.9h3.5c0-0.5-0.2-0.9-0.4-1.2c-0.3-0.4-0.8-0.6-1.3-0.6
		s-0.9,0.2-1.2,0.5S125,36.3,124.9,36.9z"/>
	<path class="st0" d="M138.2,39.7l0.2,0.9c-0.3,0.1-0.6,0.1-0.8,0.1c-0.4,0-0.7-0.1-0.9-0.2s-0.4-0.3-0.4-0.5s-0.1-0.6-0.1-1.2v-3.6
		h-0.8v-0.8h0.8v-1.5l1-0.6v2.2h1.1v0.8h-1.1v3.6c0,0.3,0,0.5,0.1,0.6s0.1,0.2,0.2,0.2s0.2,0.1,0.4,0.1
		C137.8,39.7,138,39.7,138.2,39.7z"/>
	<path class="st0" d="M144.1,39.8c-0.4,0.3-0.8,0.6-1.1,0.7s-0.7,0.2-1.2,0.2c-0.7,0-1.2-0.2-1.6-0.5s-0.6-0.8-0.6-1.3
		c0-0.3,0.1-0.6,0.2-0.8s0.3-0.5,0.5-0.6s0.5-0.3,0.8-0.3c0.2-0.1,0.5-0.1,0.9-0.2c0.9-0.1,1.5-0.2,1.9-0.4c0-0.1,0-0.2,0-0.3
		c0-0.4-0.1-0.7-0.3-0.9c-0.3-0.2-0.7-0.4-1.2-0.4s-0.9,0.1-1.1,0.3s-0.4,0.5-0.5,0.9l-1-0.1c0.1-0.4,0.2-0.8,0.5-1.1
		s0.5-0.5,0.9-0.6s0.9-0.2,1.4-0.2s1,0.1,1.3,0.2s0.6,0.3,0.7,0.5s0.3,0.4,0.3,0.7c0,0.2,0.1,0.5,0.1,1V38c0,1,0,1.6,0.1,1.9
		s0.1,0.5,0.3,0.7h-1.1C144.2,40.4,144.1,40.1,144.1,39.8z M144,37.5c-0.4,0.2-1,0.3-1.7,0.4c-0.4,0.1-0.7,0.1-0.9,0.2
		s-0.3,0.2-0.4,0.3s-0.1,0.3-0.1,0.5c0,0.3,0.1,0.5,0.3,0.7s0.5,0.3,0.9,0.3s0.8-0.1,1.1-0.3s0.5-0.4,0.7-0.7
		c0.1-0.2,0.2-0.6,0.2-1.1v-0.3H144z"/>
	<path class="st0" d="M147.6,40.6V32h1.1v4.9l2.5-2.5h1.4l-2.4,2.3l2.6,3.9h-1.3l-2.1-3.2l-0.7,0.7v2.5
		C148.7,40.6,147.6,40.6,147.6,40.6z"/>
	<path class="st0" d="M158.7,38.6l1.1,0.1c-0.2,0.6-0.5,1.1-1,1.5s-1.1,0.5-1.8,0.5c-0.9,0-1.6-0.3-2.2-0.8s-0.8-1.3-0.8-2.4
		c0-1,0.3-1.9,0.8-2.4s1.2-0.9,2.1-0.9c0.8,0,1.5,0.3,2,0.8s0.8,1.4,0.8,2.4c0,0.1,0,0.2,0,0.3h-4.6c0,0.7,0.2,1.2,0.6,1.6
		s0.8,0.5,1.3,0.5c0.4,0,0.7-0.1,1-0.3S158.6,39,158.7,38.6z M155.3,36.9h3.5c0-0.5-0.2-0.9-0.4-1.2c-0.3-0.4-0.8-0.6-1.3-0.6
		s-0.9,0.2-1.2,0.5S155.3,36.3,155.3,36.9z"/>
	<path class="st0" d="M161.6,38.7l1-0.2c0.1,0.4,0.2,0.7,0.5,1s0.6,0.3,1.1,0.3s0.8-0.1,1.1-0.3s0.4-0.4,0.4-0.7
		c0-0.2-0.1-0.4-0.3-0.6c-0.1-0.1-0.5-0.2-1.1-0.4c-0.8-0.2-1.3-0.4-1.6-0.5s-0.5-0.3-0.7-0.6s-0.2-0.5-0.2-0.8s0.1-0.5,0.2-0.8
		s0.3-0.4,0.5-0.6c0.2-0.1,0.4-0.2,0.7-0.3s0.6-0.1,0.9-0.1c0.5,0,0.9,0.1,1.3,0.2s0.6,0.3,0.8,0.6s0.3,0.6,0.4,1l-1,0.1
		c0-0.3-0.2-0.6-0.4-0.8s-0.5-0.3-1-0.3s-0.8,0.1-1,0.2s-0.3,0.3-0.3,0.6c0,0.1,0,0.3,0.1,0.4c0.1,0.1,0.2,0.2,0.4,0.3
		c0.1,0,0.4,0.1,0.9,0.3c0.7,0.2,1.3,0.4,1.6,0.5s0.5,0.3,0.7,0.6s0.3,0.5,0.3,0.9s-0.1,0.7-0.3,1s-0.5,0.6-0.9,0.7
		s-0.8,0.3-1.3,0.3c-0.8,0-1.4-0.2-1.8-0.5C162,39.9,161.7,39.4,161.6,38.7z"/>
	<path class="st0" d="M173,40.6v-6.2h0.9v0.9c0.2-0.4,0.5-0.7,0.7-0.9s0.4-0.2,0.7-0.2c0.4,0,0.7,0.1,1.1,0.3l-0.4,1
		c-0.3-0.2-0.5-0.2-0.8-0.2c-0.2,0-0.4,0.1-0.6,0.2s-0.3,0.3-0.4,0.6c-0.1,0.4-0.2,0.8-0.2,1.2v3.3C174,40.6,173,40.6,173,40.6z"/>
	<path class="st0" d="M177.5,37.5c0-1.2,0.3-2,1-2.6c0.5-0.5,1.2-0.7,2-0.7c0.9,0,1.6,0.3,2.1,0.8s0.8,1.3,0.8,2.3
		c0,0.8-0.1,1.4-0.4,1.9s-0.6,0.8-1,1.1s-1,0.4-1.5,0.4c-0.9,0-1.6-0.3-2.1-0.8S177.5,38.5,177.5,37.5z M178.6,37.5
		c0,0.8,0.2,1.4,0.5,1.8s0.8,0.6,1.3,0.6s1-0.2,1.3-0.6s0.5-1,0.5-1.8s-0.2-1.4-0.5-1.7s-0.8-0.6-1.3-0.6s-1,0.2-1.3,0.6
		S178.6,36.7,178.6,37.5z"/>
	<path class="st0" d="M185.1,37.5c0-1.2,0.3-2,1-2.6c0.5-0.5,1.2-0.7,2-0.7c0.9,0,1.6,0.3,2.1,0.8s0.8,1.3,0.8,2.3
		c0,0.8-0.1,1.4-0.4,1.9s-0.6,0.8-1,1.1s-1,0.4-1.5,0.4c-0.9,0-1.6-0.3-2.1-0.8S185.1,38.5,185.1,37.5z M186.1,37.5
		c0,0.8,0.2,1.4,0.5,1.8s0.8,0.6,1.3,0.6s1-0.2,1.3-0.6s0.5-1,0.5-1.8s-0.2-1.4-0.5-1.7s-0.8-0.6-1.3-0.6s-1,0.2-1.3,0.6
		S186.1,36.7,186.1,37.5z"/>
	<path class="st0" d="M195.3,39.7l0.2,0.9c-0.3,0.1-0.6,0.1-0.8,0.1c-0.4,0-0.7-0.1-0.9-0.2s-0.4-0.3-0.4-0.5s-0.1-0.6-0.1-1.2v-3.6
		h-0.8v-0.8h0.8v-1.5l1-0.6v2.2h1.1v0.8h-1.1v3.6c0,0.3,0,0.5,0.1,0.6s0.1,0.2,0.2,0.2s0.2,0.1,0.4,0.1
		C194.9,39.7,195.1,39.7,195.3,39.7z"/>
</g>
<path class="st0" d="M9.7,32.8c-0.6,0.4-1.4,1.5-1.8,1.9c-1.1,1.4-1.6,2.6-1.6,3.7c0,1.7,1,2.8,3,3.5c2.1,0.7,4.5,1,7.2,1
	c3.7,0,6.7-0.6,9-1.8s3.4-2.6,3.4-4.3c0-1.3-0.8-2.2-2.6-2.6c-1.1-0.3-3.3-0.4-6.6-0.5c-0.8,0-1.7-0.1-2.6-0.1s-1.8-0.1-2.5-0.1
	c-0.5,0-1.3-0.1-2.4-0.3C11.1,33.1,10.3,32.9,9.7,32.8L9.7,32.8z M9.9,23.2c-1.1,1.1-1.6,1.9-1.6,2.5c0,0.5,0.6,1,2.2,1.3
	c1.1,0.2,2.3,0.3,3.6,0.3c6.1,0,10.3,0.3,12.5,1c3.7,1.1,5.6,3.5,5.6,7.2s-2.2,6.7-6.4,8.8c-4.2,2.2-8.5,3.2-12.8,3.2
	c-3.9,0-7.1-0.8-9.4-2.3s-3.5-3.2-3.5-5c0-0.9,0.3-1.8,0.9-2.6s1.9-2,3.6-3.5l2.3-2c-0.8-0.4-1.5-0.8-2-1.2c-1-0.7-1.5-1.6-1.5-2.6
	c0-0.9,0.4-1.9,1.3-2.9c1.2-1.5,3.9-3.8,5.2-4.9c1,0.3,2.1,0.6,3.2,0.8C11.5,21.9,11.1,22.1,9.9,23.2L9.9,23.2z"/>
<path class="st1" d="M4.2,18c0.2-1.5,2.5-2.3,4.5-2.5c6.6-0.7,14.2,2.9,14.5,3.3c0.4,0.4,0.3-0.4,0.1-0.6c-0.1-0.2-2.9-2-5.8-2.8
	c6.6-1.5,10.8-5.2,11.3-5.6c0.6-0.5,0.7-1.3,0.3-1.1c0,0-3.2,2-6.7,3.3c1.4-2.4,2.1-4.9,2.1-5.2c0-0.3-0.5-0.7-0.6-0.1
	s-1.4,3.3-3.1,5.6c-1.7,0.5-3.3,0.8-5.4,0.9c-2,0.2-2.8-0.3-3.9-0.2c1.4-3.1,1.9-6.9,1.9-7.2c0-0.3-0.7-0.7-0.6-0.1
	c0,0.6-0.8,4.6-2.8,7.3c-0.8,0.1-5.2,0.9-6.5,4.4C2.8,16,1.8,13.1,2,10.6C3,0.5,14.6-3.1,24.9,3C30,6,31.4,5.7,32,5V4.9
	c0-0.6,0.5-1.1,1.2-1.1s1.2,0.5,1.2,1.1c0,0.3-0.1,0.6-0.4,0.8c-0.6,0.9-2.2,4.1-4,8.3c-2.2,5.1-6.6,9.9-14.4,9.4
	C13.3,23.3,7.1,23.2,4.2,18L4.2,18z"/>
<path class="st0" d="M263.2,18.3c0-0.9,0-1.6,0-2.3s0-1.4,0-2c0-0.7,0-1.4-0.1-2.3h7.4v1.7c-0.4,0-0.8,0-1.4-0.1c-0.6,0-1.1,0-1.8,0
	c-0.6,0-1.3,0-1.9,0c0,0.7,0,1.3,0,2s0,1.4,0,2c0.9,0,1.8,0,2.7,0c0.9,0,1.6,0,2.3-0.1V19c-0.6,0-1.4-0.1-2.3-0.1s-1.8,0-2.7,0
	c0,0.7,0,1.4,0,1.9c0,0.6,0,1.1,0,1.7s0,1.2,0.1,1.9h-2.4c0-0.8,0.1-1.5,0.1-2.1s0-1.3,0-1.9C263.2,19.8,263.2,19.1,263.2,18.3
	L263.2,18.3z"/>
<path class="st0" d="M273.9,11.6h2.4c0,1.3-0.1,2.5-0.1,3.8c0,1.2,0,2.5,0,3.8s0.3,2.3,0.9,2.8c0.6,0.6,1.4,0.8,2.4,0.8
	c0.9,0,1.7-0.2,2.3-0.8c0.6-0.5,0.9-1.5,0.9-2.9c0-1.3,0-2.6,0-3.8s0-2.5-0.1-3.8h2.1c-0.1,1.9-0.1,3.6-0.1,5.3c0,0.5,0,1,0,1.5
	s0,1,0,1.5c0,1-0.2,1.9-0.7,2.6c-0.4,0.7-1.1,1.2-1.9,1.6s-1.7,0.5-2.8,0.5c-1,0-1.9-0.2-2.7-0.5c-0.8-0.3-1.4-0.9-1.9-1.6
	s-0.7-1.6-0.7-2.6c0-0.5,0-1,0-1.5s0-1,0-1.5c0-0.8,0-1.6,0-2.4C274,13.6,273.9,12.7,273.9,11.6L273.9,11.6z"/>
<path class="st0" d="M296.9,21c0-1.3,0-2.4,0-3.5c0-1,0-2,0-3c0-0.9,0-1.9-0.1-2.9h2.1c0,0.8-0.1,1.6-0.1,2.3s0,1.3,0,2s0,1.4,0,2.3
	c0,0.8,0,1.5,0,2.1s0,1.3,0,1.9s0,1.3,0.1,2.1h-2.1c-0.8-1.2-1.6-2.4-2.4-3.6s-1.6-2.4-2.4-3.5s-1.4-2.1-2.1-2.9c0,1.4,0,2.7,0,3.8
	c0,1.1,0,2.1,0,3.1s0,2,0.1,3.1h-2c0-0.8,0.1-1.5,0.1-2.1s0-1.3,0-1.9s0-1.3,0-2.1c0-0.9,0-1.6,0-2.3s0-1.4,0-2c0-0.7,0-1.4-0.1-2.3
	h2.5c0.8,1.1,1.6,2.3,2.4,3.4s1.5,2.2,2.2,3.2S296.4,20.2,296.9,21L296.9,21z"/>
<path class="st0" d="M306.5,24.2h-4.2c0-0.8,0.1-1.5,0.1-2.1s0-1.3,0-1.9s0-1.3,0-2.1c0-0.8,0-1.6,0-2.3s0-1.4,0-2
	c0-0.7,0-1.4-0.1-2.3h4.3c1.5,0,2.8,0.2,4,0.7c1.1,0.4,2,1.1,2.6,2s0.9,2,0.9,3.3c0,2.1-0.7,3.8-2,5
	C310.8,23.6,308.9,24.2,306.5,24.2L306.5,24.2z M304.7,13.1c0,0.6,0,1.3,0,2.1c0,0.8,0,1.7,0,2.5c0,0.9,0,1.7,0,2.5s0,1.6,0,2.3
	c0.1,0,0.4,0,0.7,0c0.3,0,0.7,0,1,0c1.7,0,3.1-0.4,4-1.2c0.9-0.8,1.4-2,1.4-3.6s-0.5-2.7-1.5-3.5s-2.3-1.1-4-1.1
	C305.7,13.1,305.2,13.1,304.7,13.1L304.7,13.1z"/>
<path class="st0" d="M131.3,21c0,0.5,0,0.9,0,1.3s0,0.9,0.1,1.4c-0.7,0.2-1.4,0.4-2.1,0.5c-0.8,0.1-1.6,0.2-2.6,0.2
	c-1.2,0-2.3-0.3-3.3-0.8s-1.8-1.2-2.5-2.2c-0.6-0.9-1-2-1-3.3c0-1.4,0.3-2.6,0.9-3.6s1.5-1.9,2.6-2.4c1.1-0.6,2.4-0.9,3.9-0.9
	c0.8,0,1.6,0.1,2.2,0.2c0.7,0.1,1.3,0.3,1.8,0.5l-0.6,1.6c-0.5-0.2-1-0.4-1.6-0.5s-1.1-0.2-1.7-0.2c-1.7,0-2.9,0.5-3.8,1.3
	c-0.9,0.9-1.3,2.1-1.3,3.6c0,1,0.2,1.9,0.7,2.7c0.4,0.7,1,1.3,1.7,1.7c0.7,0.4,1.5,0.6,2.3,0.6c0.4,0,0.8,0,1.1,0s0.6-0.1,0.9-0.2
	c0-0.3,0-0.7,0-1s0-0.6,0-1s0-0.8,0-1.1c0-0.3,0-0.7,0-1h2.4c0,0.4,0,0.8-0.1,1.2C131.3,20.2,131.3,20.6,131.3,21L131.3,21z"/>
<path class="st0" d="M136.1,19c0,0.9,0,1.8,0,2.7c0,0.9,0,1.7,0.1,2.5h-2.4c0-0.8,0.1-1.5,0.1-2.1s0-1.3,0-1.9s0-1.3,0-2.1
	c0-0.9,0-1.6,0-2.3s0-1.4,0-2c0-0.7,0-1.4-0.1-2.3h3.6c1.6,0,2.9,0.3,3.8,0.9c0.9,0.6,1.4,1.5,1.4,2.7c0,0.8-0.2,1.5-0.7,2.1
	c-0.4,0.6-1,1-1.8,1.3c0.3,0.5,0.6,1.1,1,1.8c0.4,0.7,0.8,1.3,1.2,2s0.8,1.2,1.1,1.7l-2.4,0.9c-0.3-0.6-0.7-1.2-1-1.8
	c-0.4-0.7-0.7-1.3-1-2s-0.6-1.3-0.9-1.8C137.4,19.1,136.7,19.1,136.1,19L136.1,19z M137.2,13.1c-0.2,0-0.4,0-0.6,0
	c-0.2,0-0.3,0-0.5,0c0,0.4,0,0.8,0,1.4c0,0.5,0,1,0,1.6c0,0.5,0,1,0,1.4c0.3,0,0.6,0,1.1,0c2.1,0,3.1-0.8,3.1-2.2
	c0-0.7-0.3-1.2-0.8-1.6C139,13.3,138.2,13.1,137.2,13.1L137.2,13.1z"/>
<path class="st0" d="M153.3,13.2c-0.4,0-0.8,0-1.4-0.1c-0.6,0-1.1,0-1.8,0c-0.6,0-1.3,0-1.9,0c0,0.6,0,1.3,0,1.9c0,0.6,0,1.3,0,1.9
	c0.9,0,1.8,0,2.7,0s1.6,0,2.3-0.1v1.8c-0.7,0-1.4-0.1-2.3-0.1c-0.9,0-1.8,0-2.6,0c0,0.7,0,1.4,0,2.1s0,1.3,0,2c0.6,0,1.3,0,2,0
	s1.4,0,2,0s1.2,0,1.7-0.1l-0.7,1.7H146c0-0.8,0.1-1.5,0.1-2.1s0-1.3,0-1.9s0-1.3,0-2.1c0-0.9,0-1.6,0-2.3s0-1.4,0-2
	c0-0.7,0-1.4-0.1-2.3h7.4L153.3,13.2L153.3,13.2z"/>
<path class="st0" d="M163.8,13.2c-0.4,0-0.8,0-1.4-0.1c-0.6,0-1.1,0-1.8,0c-0.6,0-1.3,0-1.9,0c0,0.6,0,1.3,0,1.9c0,0.6,0,1.3,0,1.9
	c0.9,0,1.8,0,2.7,0s1.6,0,2.3-0.1v1.8c-0.7,0-1.4-0.1-2.3-0.1c-0.9,0-1.8,0-2.6,0c0,0.7,0,1.4,0,2.1s0,1.3,0,2c0.6,0,1.3,0,2,0
	s1.4,0,2,0s1.2,0,1.7-0.1l-0.7,1.7h-7.3c0-0.8,0.1-1.5,0.1-2.1s0-1.3,0-1.9s0-1.3,0-2.1c0-0.9,0-1.6,0-2.3s0-1.4,0-2
	c0-0.7,0-1.4-0.1-2.3h7.4L163.8,13.2L163.8,13.2z"/>
<path class="st0" d="M174.8,20.9c0-1.3,0-2.4,0-3.5c0-1,0-2,0-3c0-0.9,0-1.9-0.1-2.9h2.1c0,0.8-0.1,1.6-0.1,2.3s0,1.3,0,2
	s0,1.4,0,2.3c0,0.8,0,1.5,0,2.1s0,1.3,0,1.9s0,1.3,0.1,2.1h-2.1c-0.8-1.2-1.6-2.4-2.4-3.6c-0.8-1.2-1.6-2.4-2.4-3.5
	c-0.8-1.1-1.4-2.1-2.1-2.9c0,1.4,0,2.7,0,3.8c0,1.1,0,2.1,0,3.1s0,2,0.1,3.1h-2.1c0-0.8,0.1-1.5,0.1-2.1s0-1.3,0-1.9s0-1.3,0-2.1
	c0-0.9,0-1.6,0-2.3s0-1.4,0-2c0-0.7,0-1.4-0.1-2.3h2.5c0.8,1.1,1.6,2.3,2.4,3.4c0.8,1.1,1.5,2.2,2.2,3.2
	C173.7,19.2,174.3,20.1,174.8,20.9L174.8,20.9z"/>
<path class="st0" d="M190.6,21c0,0.5,0,0.9,0,1.3s0,0.9,0.1,1.4c-0.7,0.2-1.4,0.4-2.1,0.5c-0.8,0.1-1.6,0.2-2.6,0.2
	c-1.2,0-2.3-0.3-3.3-0.8s-1.8-1.2-2.5-2.2c-0.6-0.9-1-2-1-3.3c0-1.4,0.3-2.6,0.9-3.6c0.6-1,1.5-1.9,2.6-2.4c1.1-0.6,2.4-0.9,3.9-0.9
	c0.8,0,1.6,0.1,2.2,0.2c0.7,0.1,1.3,0.3,1.8,0.5l-0.6,1.6c-0.5-0.2-1-0.4-1.6-0.5s-1.1-0.2-1.7-0.2c-1.7,0-2.9,0.5-3.8,1.3
	c-0.9,0.9-1.3,2.1-1.3,3.6c0,1,0.2,1.9,0.7,2.7c0.4,0.7,1,1.3,1.7,1.7c0.7,0.4,1.5,0.6,2.3,0.6c0.4,0,0.8,0,1.1,0s0.6-0.1,0.9-0.2
	c0-0.3,0-0.7,0-1s0-0.6,0-1s0-0.8,0-1.1c0-0.3,0-0.7,0-1h2.4c0,0.4,0,0.8-0.1,1.2C190.6,20.2,190.6,20.6,190.6,21L190.6,21z"/>
<path class="st0" d="M196.4,19c0,0.9,0,1.8,0,2.7c0,0.9,0,1.7,0.1,2.5h-2.4c0-0.8,0.1-1.5,0.1-2.1s0-1.3,0-1.9s0-1.3,0-2.1
	c0-0.9,0-1.6,0-2.3s0-1.4,0-2c0-0.7,0-1.4-0.1-2.3h3.6c1.6,0,2.9,0.3,3.8,0.9c0.9,0.6,1.4,1.5,1.4,2.7c0,0.8-0.2,1.5-0.7,2.1
	c-0.4,0.6-1,1-1.8,1.3c0.3,0.5,0.6,1.1,1,1.8c0.4,0.7,0.8,1.3,1.2,2s0.8,1.2,1.1,1.7l-2.4,0.9c-0.3-0.6-0.7-1.2-1-1.8
	c-0.4-0.7-0.7-1.3-1-2s-0.6-1.3-0.9-1.8C197.7,19.1,197.1,19.1,196.4,19L196.4,19z M197.5,13.1c-0.2,0-0.4,0-0.6,0
	c-0.2,0-0.3,0-0.5,0c0,0.4,0,0.8,0,1.4c0,0.5,0,1,0,1.6c0,0.5,0,1,0,1.4c0.3,0,0.6,0,1.1,0c2.1,0,3.1-0.8,3.1-2.2
	c0-0.7-0.3-1.2-0.8-1.6C199.3,13.3,198.5,13.1,197.5,13.1L197.5,13.1z"/>
<path class="st0" d="M207.4,24.3h-2.2c0.4-0.8,0.8-1.7,1.3-2.8c0.5-1.1,1-2.2,1.5-3.4c0.5-1.2,1-2.3,1.5-3.5
	c0.5-1.1,0.9-2.2,1.4-3.2h2.2c0.5,1.2,1,2.6,1.5,4.1c0.6,1.5,1.2,3,1.8,4.5s1.2,2.9,1.8,4.3h-2.6c-0.2-0.6-0.4-1.1-0.7-1.8
	c-0.2-0.6-0.5-1.2-0.7-1.8h-5.4c-0.3,0.6-0.5,1.3-0.8,1.9C207.9,23.2,207.7,23.7,207.4,24.3L207.4,24.3z M211.8,13.6
	c-0.3,0.8-0.6,1.6-1,2.6c-0.4,0.9-0.8,1.9-1.2,2.9h4.2c-0.4-1-0.7-1.9-1.1-2.9C212.4,15.3,212.1,14.4,211.8,13.6L211.8,13.6z"/>
<path class="st0" d="M228.7,20.9c0-1.3,0-2.4,0-3.5c0-1,0-2,0-3c0-0.9,0-1.9-0.1-2.9h2.1c0,0.8-0.1,1.6-0.1,2.3s0,1.3,0,2
	s0,1.4,0,2.3c0,0.8,0,1.5,0,2.1s0,1.3,0,1.9s0,1.3,0.1,2.1h-2.1c-0.8-1.2-1.6-2.4-2.4-3.6c-0.8-1.2-1.6-2.4-2.4-3.5
	c-0.8-1.1-1.4-2.1-2.1-2.9c0,1.4,0,2.7,0,3.8c0,1.1,0,2.1,0,3.1s0,2,0.1,3.1h-2.1c0-0.8,0.1-1.5,0.1-2.1s0-1.3,0-1.9s0-1.3,0-2.1
	c0-0.9,0-1.6,0-2.3s0-1.4,0-2c0-0.7,0-1.4-0.1-2.3h2.5c0.8,1.1,1.6,2.3,2.4,3.4c0.8,1.1,1.5,2.2,2.2,3.2
	C227.6,19.2,228.2,20.1,228.7,20.9L228.7,20.9z"/>
<path class="st0" d="M238.9,17.7c0,0.9,0,1.6,0,2.3c0,0.7,0,1.4,0,2c0,0.7,0,1.4,0.1,2.3h-2.4c0-0.8,0.1-1.6,0.1-2.3
	c0-0.7,0-1.4,0-2c0-0.7,0-1.4,0-2.3c0-0.8,0-1.6,0-2.3s0-1.4-0.1-2.2c-0.9,0-1.7,0-2.4,0s-1.4,0.1-2.1,0.1l0.7-1.7h10.5v1.7
	c-0.6,0-1.2,0-2,0s-1.5,0-2.3,0c0,0.8-0.1,1.5-0.1,2.2C238.9,16.1,238.9,16.8,238.9,17.7L238.9,17.7z"/>
<path class="st0" d="M252.8,11.9l-0.6,1.6c-0.4-0.2-0.8-0.3-1.3-0.4c-0.5-0.1-1-0.2-1.5-0.2c-0.8,0-1.4,0.2-1.8,0.4
	c-0.4,0.3-0.6,0.7-0.6,1.1c0,0.4,0.1,0.8,0.4,1.1c0.3,0.3,0.8,0.7,1.7,1l1.3,0.6c1,0.4,1.7,0.9,2.1,1.5c0.4,0.6,0.7,1.3,0.7,2.2
	c0,0.7-0.2,1.4-0.6,1.9c-0.4,0.6-1,1-1.7,1.3s-1.5,0.5-2.4,0.5c-1.6,0-3-0.3-4.2-0.8l0.6-1.6c1,0.5,2.2,0.8,3.4,0.8
	c0.8,0,1.4-0.2,1.8-0.5c0.4-0.3,0.6-0.7,0.6-1.2s-0.1-0.9-0.4-1.2c-0.3-0.3-0.8-0.7-1.6-1l-1.5-0.6c-1.7-0.7-2.6-1.9-2.6-3.5
	c0-0.6,0.2-1.2,0.6-1.7c0.4-0.5,0.9-0.9,1.6-1.3c0.7-0.3,1.5-0.5,2.4-0.5c0.7,0,1.4,0,1.9,0.2C251.8,11.5,252.3,11.7,252.8,11.9
	L252.8,11.9z"/>
<path class="st0" d="M52.1,21.2c0,0.5,0,0.9,0,1.3s0,0.9,0.1,1.4c-0.7,0.2-1.4,0.4-2.1,0.5c-0.7,0.1-1.6,0.2-2.6,0.2
	c-1.2,0-2.3-0.3-3.3-0.8s-1.8-1.2-2.4-2.1c-0.6-0.9-0.9-2-1-3.2c0-1.4,0.3-2.6,0.9-3.6c0.6-1,1.5-1.8,2.5-2.4
	c1.1-0.6,2.4-0.9,3.9-0.9c0.8,0,1.6,0.1,2.2,0.2c0.7,0.1,1.2,0.3,1.8,0.5l-0.6,1.6c-0.5-0.2-1-0.4-1.6-0.5s-1.1-0.2-1.7-0.2
	c-1.7,0-2.9,0.5-3.8,1.3c-0.9,0.9-1.3,2.1-1.3,3.6c0,1,0.2,1.9,0.7,2.7c0.4,0.7,1,1.3,1.7,1.7c0.7,0.4,1.5,0.6,2.3,0.6
	c0.4,0,0.8,0,1.1,0s0.6-0.1,0.9-0.2c0-0.3,0-0.7,0-1s0-0.6,0-1s0-0.8,0-1.1c0-0.3,0-0.7,0-1h2.4c0,0.4,0,0.8-0.1,1.2
	C52.1,20.4,52.1,20.8,52.1,21.2L52.1,21.2z"/>
<path class="st0" d="M57.1,18.3c0,0.8,0,1.6,0,2.3c0,0.7,0,1.4,0,2.2c0.6,0,1.3,0,2,0s1.4,0,2,0s1.2,0,1.6-0.1L62,24.4h-7.3
	c0-0.8,0.1-1.5,0.1-2.1s0-1.3,0-1.9s0-1.3,0-2.1c0-0.8,0-1.6,0-2.3s0-1.3,0-2s0-1.4-0.1-2.2h2.4c0,0.8-0.1,1.6-0.1,2.2
	c0,0.7,0,1.3,0,2C57.1,16.7,57.1,17.4,57.1,18.3L57.1,18.3z"/>
<path class="st0" d="M64.1,18.2c0-1.4,0.3-2.5,0.9-3.5s1.4-1.8,2.4-2.3c1-0.6,2.1-0.8,3.4-0.8s2.5,0.3,3.5,0.8s1.8,1.3,2.3,2.2
	c0.6,1,0.8,2.1,0.8,3.3c0,1.4-0.3,2.5-0.9,3.5s-1.4,1.8-2.4,2.3s-2.1,0.8-3.4,0.8s-2.5-0.3-3.5-0.8s-1.8-1.3-2.3-2.2
	C64.3,20.6,64.1,19.4,64.1,18.2L64.1,18.2z M75,18c0-1.5-0.4-2.7-1.2-3.6c-0.8-0.9-1.8-1.3-3.1-1.3c-1.3,0-2.3,0.5-3.1,1.4
	c-0.7,0.9-1.1,2.1-1.1,3.6s0.4,2.7,1.2,3.6c0.8,0.9,1.8,1.3,3,1.3c1.3,0,2.3-0.5,3.1-1.4C74.6,20.7,74.9,19.5,75,18L75,18z"/>
<path class="st0" d="M79.8,24.3c0-0.8,0.1-1.5,0.1-2.1s0-1.3,0-1.9s0-1.3,0-2.1c0-0.8,0-1.6,0-2.3s0-1.3,0-2s0-1.4-0.1-2.2h3.8
	c1.6,0,2.8,0.3,3.6,0.8c0.9,0.5,1.3,1.3,1.3,2.3c0,0.7-0.3,1.3-0.7,1.8c-0.5,0.5-1.1,0.8-1.8,1c0.9,0.2,1.7,0.5,2.2,1.1
	c0.6,0.5,0.9,1.2,0.9,2c0,2.5-1.8,3.7-5.4,3.7h-3.9V24.3z M86.8,20.6c0-1.3-1.1-2-3.5-2c-0.2,0-0.4,0-0.7,0c-0.2,0-0.4,0-0.6,0
	c0,1.4,0,2.8,0,4.1c0.3,0,0.8,0,1.3,0c1.3,0,2.2-0.2,2.7-0.6C86.6,21.8,86.9,21.3,86.8,20.6L86.8,20.6z M83.3,13.3
	c-0.2,0-0.4,0-0.6,0s-0.4,0-0.6,0c0,1.2,0,2.4,0,3.7c0.2,0,0.3,0,0.6,0c0.2,0,0.4,0,0.7,0c1,0,1.8-0.2,2.3-0.5s0.7-0.8,0.7-1.4
	c0-0.6-0.2-1.1-0.7-1.4C85.2,13.4,84.4,13.3,83.3,13.3L83.3,13.3z"/>
<path class="st0" d="M92.9,24.4h-2.2c0.4-0.8,0.8-1.7,1.3-2.8c0.5-1.1,1-2.2,1.5-3.3c0.5-1.2,1-2.3,1.5-3.5c0.5-1.1,0.9-2.2,1.3-3.2
	h2.1c0.4,1.2,1,2.6,1.5,4c0.6,1.5,1.2,2.9,1.8,4.4c0.6,1.5,1.2,2.9,1.8,4.2h-2.6c-0.2-0.6-0.4-1.1-0.7-1.7c-0.2-0.6-0.5-1.2-0.7-1.8
	h-5.3c-0.2,0.6-0.5,1.3-0.8,1.9C93.4,23.3,93.1,23.8,92.9,24.4L92.9,24.4z M97.2,13.8c-0.3,0.8-0.6,1.6-1,2.6
	c-0.4,0.9-0.8,1.9-1.2,2.9h4.2c-0.4-1-0.7-1.9-1.1-2.8C97.8,15.4,97.5,14.6,97.2,13.8L97.2,13.8z"/>
<path class="st0" d="M108.3,18.3c0,0.8,0,1.6,0,2.3c0,0.7,0,1.4,0,2.2c0.6,0,1.3,0,2,0s1.4,0,2,0s1.2,0,1.6-0.1l-0.7,1.7h-7.3
	c0-0.8,0.1-1.5,0.1-2.1s0-1.3,0-1.9s0-1.3,0-2.1c0-0.8,0-1.6,0-2.3s0-1.3,0-2s0-1.4-0.1-2.2h2.4c0,0.8-0.1,1.6-0.1,2.2
	c0,0.7,0,1.3,0,2C108.3,16.7,108.3,17.5,108.3,18.3L108.3,18.3z"/>
</svg>
